<svg width="42" height="42" viewBox="0 0 42 42" fill="none" xmlns="http://www.w3.org/2000/svg">
<path d="M41.6583 40.0084C42.1139 40.464 42.1139 41.2027 41.6583 41.6583C41.2027 42.1139 40.464 42.1139 40.0084 41.6583L27.4456 29.0955C27.2152 28.8652 26.8239 28.8476 26.5784 29.0481C26.5784 29.0481 26.3872 29.2134 26.0514 29.4623C23.3357 31.4758 19.9736 32.6667 16.3333 32.6667C7.31268 32.6667 0 25.354 0 16.3333C0 7.31268 7.31268 0 16.3333 0C25.354 0 32.6667 7.31268 32.6667 16.3333C32.6667 19.8907 31.5294 23.1824 29.5987 25.8648C29.3094 26.2667 29.0483 26.5746 29.0483 26.5746C28.844 26.8253 28.8619 27.212 29.0955 27.4456L41.6583 40.0084ZM16.3333 30.3333C24.0653 30.3333 30.3333 24.0653 30.3333 16.3333C30.3333 8.60135 24.0653 2.33333 16.3333 2.33333C8.60135 2.33333 2.33333 8.60135 2.33333 16.3333C2.33333 24.0653 8.60135 30.3333 16.3333 30.3333Z" fill="black"/>
</svg>
